<svg width="206" height="206" viewBox="0 0 206 206" fill="none" xmlns="http://www.w3.org/2000/svg">
<path d="M97.0775 37.0478L22.0162 167.053C21.4191 168.094 21.1056 169.273 21.1069 170.473C21.1083 171.673 21.4245 172.851 22.024 173.891C22.6235 174.93 23.4853 175.794 24.5232 176.396C25.5611 176.998 26.7389 177.317 27.9387 177.321H178.061C179.261 177.317 180.439 176.998 181.477 176.396C182.515 175.794 183.376 174.93 183.976 173.891C184.575 172.851 184.892 171.673 184.893 170.473C184.894 169.273 184.581 168.094 183.984 167.053L108.922 37.0478C108.319 36.0125 107.454 35.1536 106.415 34.5566C105.376 33.9596 104.198 33.6455 103 33.6455C101.802 33.6455 100.624 33.9596 99.5849 34.5566C98.5457 35.1536 97.6812 36.0125 97.0775 37.0478Z" fill="#EFCC00"/>
<path d="M93.3434 148.062C93.3434 146.153 93.9097 144.286 94.9707 142.698C96.0318 141.11 97.5399 139.872 99.3043 139.141C101.069 138.41 103.01 138.219 104.883 138.592C106.757 138.964 108.477 139.884 109.828 141.234C111.178 142.585 112.098 144.305 112.47 146.179C112.843 148.052 112.652 149.993 111.921 151.758C111.19 153.522 109.952 155.03 108.364 156.091C106.776 157.152 104.909 157.719 103 157.719C101.717 157.773 100.437 157.561 99.2406 157.095C98.0444 156.629 96.9579 155.92 96.0501 155.012C95.1423 154.104 94.4329 153.018 93.967 151.821C93.5011 150.625 93.2887 149.345 93.3434 148.062ZM96.8518 133.063L94.4056 84.7817H111.336L108.986 133.063H96.8518Z" fill="#353535"/>
</svg>
