<svg width="800" height="800" viewBox="0 0 800 800" fill="none" xmlns="http://www.w3.org/2000/svg">
<g clip-path="url(#clip0_1_2)">
<path d="M561.781 147.644C537.596 147.644 514.86 157.062 497.757 174.163C462.456 209.466 462.456 266.907 497.757 302.21C514.858 319.311 537.596 328.729 561.78 328.729C585.963 328.729 608.701 319.311 625.804 302.21C661.105 266.907 661.105 209.466 625.804 174.163C608.702 157.062 585.965 147.644 561.781 147.644ZM590.814 267.219C583.059 274.975 572.748 279.247 561.78 279.247C550.811 279.247 540.5 274.975 532.745 267.221C516.735 251.211 516.735 225.162 532.745 209.153C540.5 201.397 550.811 197.127 561.78 197.127C572.748 197.127 583.057 201.397 590.814 209.153C606.824 225.162 606.824 251.21 590.814 267.219Z" fill="#CBCBCB"/>
<path d="M728.982 70.9847C683.209 25.2098 622.347 0 557.612 0C492.875 0 432.015 25.2098 386.241 70.9847C316.593 140.633 296.362 244.47 333.352 334.395L0.418945 667.332L0.14679 799.728L238.591 800V708.091H330.473V616.209H422.354V509.834L465.589 466.6C494.643 478.481 526.119 484.704 557.625 484.704C622.355 484.704 683.212 459.497 728.982 413.726C823.476 319.232 823.476 165.479 728.982 70.9847ZM693.993 378.736C657.569 415.161 609.138 435.221 557.625 435.221C527.716 435.221 497.855 428.186 471.273 414.879L455.319 406.892L372.871 489.339V566.727H280.99V658.608H189.108V750.461L49.7319 750.303L49.8605 687.872L393.077 344.648L385.09 328.694C347.859 254.327 362.382 164.822 421.231 105.974C457.66 69.5448 506.094 49.4828 557.612 49.4828C609.13 49.4828 657.564 69.5448 693.993 105.974C769.194 181.175 769.194 303.536 693.993 378.736Z" fill="#CBCBCB"/>
</g>
<defs>
<clipPath id="clip0_1_2">
<rect width="800" height="800" fill="white"/>
</clipPath>
</defs>
</svg>
