<svg width="64" height="64" viewBox="0 0 64 64" fill="none" xmlns="http://www.w3.org/2000/svg">
<path d="M58 12.5V51.5C58 51.8978 57.8443 52.2794 57.5671 52.5607C57.29 52.842 56.9141 53 56.5221 53H26.9643C26.5724 53 26.1965 52.842 25.9193 52.5607C25.6422 52.2794 25.4865 51.8978 25.4865 51.5V48.5H28.4422V50H55.0442V14H28.4422V18.5H25.4865V12.5C25.4865 12.1022 25.6422 11.7206 25.9193 11.4393C26.1965 11.158 26.5724 11 26.9643 11H56.5221C56.9141 11 57.29 11.158 57.5671 11.4393C57.8443 11.7206 58 12.1022 58 12.5ZM33.9252 38.435L29.0482 33.5H44.699V30.5H29.0482L33.9252 25.565L31.8266 23.435L24.4372 30.935C24.2986 31.0744 24.1887 31.2403 24.1137 31.4231C24.0386 31.6059 24 31.802 24 32C24 32.198 24.0386 32.3941 24.1137 32.5769C24.1887 32.7597 24.2986 32.9256 24.4372 33.065L31.8266 40.565L33.9252 38.435Z" fill="#D8D8D8"/>
<path d="M11.7245 26.5H9.55005C10.1063 27.105 10.4603 27.9116 10.4603 28.7687C10.4603 29.8778 9.85346 30.9366 8.94324 31.5416V35.5748C8.94324 35.7765 8.89267 35.9277 8.84211 36.0789H11.9773C12.2807 36.0789 12.483 35.8773 12.483 35.5748V30.8861C13.3932 30.5837 14 29.7266 14 28.7687C14 27.5083 12.9886 26.5 11.7245 26.5Z" fill="#BA6621"/>
<path d="M7.56233 36.0789H2.01662C1.71413 36.0789 1.51247 35.8773 1.51247 35.5748V30.8861C0.604986 30.5837 0 29.7266 0 28.7687C0 27.5083 1.00831 26.5 2.2687 26.5H7.31025C8.57064 26.5 9.57895 27.5083 9.57895 28.7687C9.57895 29.7266 8.97396 30.5837 8.06648 30.8861V35.5748C8.06648 35.8773 7.86482 36.0789 7.56233 36.0789Z" fill="#E5893D"/>
<path d="M15.5679 38H13.9789C14.3854 38.4421 14.644 39.0316 14.644 39.6579C14.644 40.4684 14.2006 41.2421 13.5354 41.6842V44.6316C13.5354 44.7789 13.4985 44.8895 13.4615 45H15.7526C15.9744 45 16.1222 44.8526 16.1222 44.6316V41.2053C16.7873 40.9842 17.2308 40.3579 17.2308 39.6579C17.2308 38.7368 16.4917 38 15.5679 38Z" fill="#BA6621"/>
<path d="M12.5263 45H8.47368C8.25263 45 8.10526 44.8526 8.10526 44.6316V41.2053C7.44211 40.9842 7 40.3579 7 39.6579C7 38.7368 7.73684 38 8.65789 38H12.3421C13.2632 38 14 38.7368 14 39.6579C14 40.3579 13.5579 40.9842 12.8947 41.2053V44.6316C12.8947 44.8526 12.7474 45 12.5263 45Z" fill="#E5893D"/>
<path d="M15.9412 16.1667H13.9739C14.4771 16.714 14.7974 17.4439 14.7974 18.2193C14.7974 19.2228 14.2484 20.1807 13.4248 20.7281V24.3772C13.4248 24.5597 13.3791 24.6965 13.3333 24.8333H16.1699C16.4444 24.8333 16.6275 24.6509 16.6275 24.3772V20.1351C17.451 19.8614 18 19.086 18 18.2193C18 17.079 17.085 16.1667 15.9412 16.1667Z" fill="#BA6621"/>
<path d="M12.1754 24.8333H7.1579C6.88421 24.8333 6.70175 24.6509 6.70175 24.3772V20.1351C5.8807 19.8614 5.33333 19.086 5.33333 18.2193C5.33333 17.079 6.24561 16.1667 7.38597 16.1667H11.9474C13.0877 16.1667 14 17.079 14 18.2193C14 19.086 13.4526 19.8614 12.6316 20.1351V24.3772C12.6316 24.6509 12.4491 24.8333 12.1754 24.8333Z" fill="#E5893D"/>
</svg>
