<svg width="206" height="206" viewBox="0 0 206 206" fill="none" xmlns="http://www.w3.org/2000/svg">
<g clip-path="url(#clip0_214_5)">
<path d="M148.062 90.125C141.277 90.125 134.795 91.3481 128.75 93.4854V77.25H77.25V90.125H51.5V64.375H64.375V12.875H12.875V64.375H38.625V167.369H77.25V193.125H111.684C121.63 201.159 134.28 205.994 148.062 206C180.063 205.987 205.987 180.063 206 148.062C205.987 116.049 180.063 90.125 148.062 90.125ZM90.5048 141.625H77.25V154.5H51.5064L51.5 102.987H77.25V128.75H93.4854C92.0369 132.857 90.9941 137.157 90.5048 141.625ZM148.062 192.372C123.594 192.314 103.798 172.519 103.74 148.062C103.798 123.594 123.594 103.798 148.062 103.74C172.519 103.798 192.314 123.594 192.372 148.062C192.314 172.519 172.519 192.314 148.062 192.372Z" fill="#4076B6"/>
<path d="M180.25 154.5V141.619H169.544C169.139 140.254 168.611 138.96 167.967 137.717L175.609 130.076L166.493 120.967L158.993 128.473C157.577 127.681 156.084 127.051 154.506 126.581V115.875H141.631V126.574C140.157 127.012 138.76 127.591 137.434 128.312L130.089 120.973L120.98 130.083L128.319 137.421C127.598 138.754 127.018 140.151 126.574 141.625H115.875V154.5H126.574C127.044 156.084 127.681 157.584 128.473 158.993L120.973 166.48L130.07 175.596L137.717 167.954C138.953 168.605 140.254 169.126 141.612 169.532V180.25H154.5V169.532C155.974 169.094 157.365 168.514 158.691 167.793L166.493 175.596L175.596 166.48L167.793 158.691C168.508 157.365 169.087 155.968 169.532 154.5H180.25ZM148.056 157.712C142.719 157.699 138.413 153.393 138.393 148.056C138.413 142.719 142.719 138.413 148.056 138.393C153.393 138.413 157.699 142.719 157.712 148.056C157.699 153.393 153.393 157.699 148.056 157.712Z" fill="#4076B6"/>
</g>
<defs>
<clipPath id="clip0_214_5">
<rect width="206" height="206" fill="white"/>
</clipPath>
</defs>
</svg>
