<svg width="206" height="184" viewBox="0 0 206 184" fill="none" xmlns="http://www.w3.org/2000/svg">
<g clip-path="url(#clip0_208_201)">
<path d="M198.561 91.7701L160.222 77.1785V28.2356C160.222 23.3967 157.263 19.0657 152.798 17.3634L111.025 1.47705C108.436 0.492469 105.718 0 103 0C100.282 0 97.5639 0.492469 94.9531 1.47884L53.2167 17.3669C48.7462 19.0657 45.7778 23.3967 45.7778 28.2356V77.1606L7.42458 91.7701C2.95875 93.451 0 97.8142 0 102.642V154.858C0 159.697 2.95875 164.031 7.42458 165.73L49.1968 181.616C51.7861 182.61 54.5042 183.111 57.2222 183.111C59.9403 183.111 62.6691 182.618 65.2584 181.632L103 167.268L140.731 181.627C143.342 182.61 146.06 183.111 148.778 183.111C151.496 183.111 154.225 182.618 156.814 181.632L198.586 165.746C203.032 164.049 206 159.722 206 154.858V102.642C206 97.8142 203.032 93.451 198.561 91.7701ZM57.2222 116.054L22.3596 104.431L54.9691 92.0205L89.6851 105.228L57.2222 116.054ZM94.4167 152.175L65.8056 163.062V131.289L94.4167 121.751V152.175ZM68.1302 30.0524L101.062 17.5243C101.677 17.2883 102.356 17.1667 103 17.1667C103.644 17.1667 104.31 17.2868 104.933 17.5236L137.86 30.0517L103 41.6649L68.1302 30.0524ZM143.056 46.4215V75.2293C142.281 75.4326 141.497 75.5881 140.741 75.876L111.583 86.942V56.9003L143.056 46.4215ZM148.778 116.054L116.308 105.232L151.02 92.0241L183.637 104.434L148.778 116.054ZM188.833 151.067L157.361 163.04V131.289L188.833 120.8V151.067Z" fill="#2D80CD"/>
</g>
<defs>
<clipPath id="clip0_208_201">
<rect width="206" height="183.111" fill="white"/>
</clipPath>
</defs>
</svg>
