<svg width="206" height="206" viewBox="0 0 206 206" fill="none" xmlns="http://www.w3.org/2000/svg">
<g clip-path="url(#clip0_199_121)">
<path d="M180.25 64.375H115.875V77.25H180.25V64.375ZM90.125 64.375H25.75V128.75H90.125V64.375ZM206 0H0V180.25H99.8971C110.287 195.771 127.971 205.994 148.062 206C180.063 205.987 205.987 180.063 206 148.062C206 145.732 205.826 143.44 205.556 141.181L206 141.625V0ZM64.375 12.875H141.625V25.75H64.375V12.875ZM38.625 12.875H51.5V25.75H38.625V12.875ZM12.875 12.875H25.75V25.75H12.875V12.875ZM148.062 192.372C123.594 192.314 103.798 172.519 103.74 148.062C103.798 123.594 123.594 103.798 148.062 103.74C172.519 103.798 192.314 123.594 192.372 148.062C192.314 172.519 172.519 192.314 148.062 192.372ZM193.119 111.678C189.449 107.139 185.117 103.154 180.25 99.8971V90.125H148.127C148.108 90.125 148.082 90.125 148.062 90.125C148.043 90.125 148.017 90.125 147.998 90.125H115.875V99.8842C100.348 110.274 90.125 127.958 90.125 148.056C90.125 154.841 91.3481 161.324 93.4918 167.369H12.875V38.625H193.119V111.678ZM193.125 25.75H167.375V12.875H193.125V25.75Z" fill="#CD4C30"/>
<path d="M180.25 141.625H154.513V115.875H141.625V141.625H115.875V154.5H141.625V180.25H154.513V154.5H180.25V141.625Z" fill="#CD4C30"/>
</g>
<defs>
<clipPath id="clip0_199_121">
<rect width="206" height="206" fill="white"/>
</clipPath>
</defs>
</svg>
