<svg width="218" height="218" viewBox="0 0 218 218" fill="none" xmlns="http://www.w3.org/2000/svg">
<path d="M166.055 17.0312H28.5912C22.2045 17.0312 17.0312 22.2045 17.0312 28.5912V189.451C17.0312 195.796 22.2045 200.969 28.5486 200.969H189.43C195.796 200.969 200.947 195.796 200.947 189.451V53.0098L166.055 17.0312ZM73.8731 25.5469H144.127V76.1084C144.127 77.6838 142.828 78.9824 141.253 78.9824H76.7471C75.1717 78.9824 73.8731 77.6838 73.8731 76.1084V25.5469ZM108.979 177.785C88.7115 177.785 72.2125 161.286 72.2125 141.019C72.2125 120.752 88.7115 104.253 108.979 104.253C129.246 104.253 145.745 120.752 145.745 141.019C145.745 161.286 129.267 177.785 108.979 177.785Z" fill="#4076B6"/>
</svg>
