<svg width="961" height="522" viewBox="0 0 961 522" fill="none" xmlns="http://www.w3.org/2000/svg">
<rect width="962" height="520" fill="white"/>
<path d="M0 474.274L14.6942 472.897C29.3885 471.521 58.7769 468.767 88.1654 473.081C117.554 477.303 146.942 488.684 176.331 495.384C205.719 502.084 235.108 504.286 264.496 496.026C293.885 487.766 323.273 469.042 352.662 469.501C382.05 469.96 411.439 489.601 440.827 490.336C470.215 491.07 468.5 476.5 492 466C499.319 462.113 503.529 460.137 511.5 457.5C517.597 455.635 520.982 455.261 527 455L531 522H514.298C499.604 522 470.215 522 440.827 522C411.439 522 382.05 522 352.662 522C323.273 522 293.885 522 264.496 522C235.108 522 205.719 522 176.331 522C146.942 522 117.554 522 88.1654 522C58.7769 522 29.3885 522 14.6942 522H0V474.274Z" fill="#4E1258"/>
<path d="M527 455L545.5 458C561.5 459 580.584 463.241 601.166 458.13C625.221 452.101 649.276 436.465 673.332 434.863C697.387 433.262 721.442 445.884 745.498 457.188C769.553 468.491 793.608 478.476 817.664 481.491C841.719 484.505 865.774 480.36 889.829 470.47C913.885 460.579 937.94 444.942 949.968 437.03L962 430V522H949.968C937.94 522 913.885 522 889.829 522C865.774 522 841.719 522 817.664 522C793.608 522 769.553 522 745.498 522C721.442 522 697.387 522 673.332 522C649.276 522 624.72 522 600.665 522C576.609 522 553.027 522 541 522L529.5 522L527 455Z" fill="#961CC0"/>
</svg>
