<svg width="1920" height="87" viewBox="0 0 1920 87" fill="none" xmlns="http://www.w3.org/2000/svg">
<path d="M-6.10352e-05 14.5904H63.9999C128 14.5904 256 14.5904 384 25.5332C512 36.4761 640 58.3617 768 70.3988C896 82.8007 1024 84.9893 1152 86.4483C1280 87.5426 1408 87.5426 1536 81.3417C1664 75.5055 1792 63.1036 1856 57.2674L1920 51.0665V-3.05176e-05H1856C1792 -3.05176e-05 1664 -3.05176e-05 1536 -3.05176e-05C1408 -3.05176e-05 1280 -3.05176e-05 1152 -3.05176e-05C1024 -3.05176e-05 896 -3.05176e-05 768 -3.05176e-05C640 -3.05176e-05 512 -3.05176e-05 384 -3.05176e-05C256 -3.05176e-05 128 -3.05176e-05 63.9999 -3.05176e-05H-6.10352e-05V14.5904Z" fill="#1F0736"/>
</svg>
