<svg width="960" height="530" viewBox="0 0 960 530" fill="none" xmlns="http://www.w3.org/2000/svg">
<g clip-path="url(#clip0_250_43)">
<path d="M0 141.988L80 146.442C160 151 320 159.909 480 184.461C640 209.013 800 249 880 269.097L960 289.091V-2.00757H880C800 -2.00757 640 -2.00757 480 -2.00757C320 -2.00757 160 -2.00757 80 -2.00757H0V141.988Z" fill="#29A3E8"/>
<path d="M0 271.029L80 291.411C160 311.639 320 352.403 480 383.439C640 414.629 800 436.247 880 447.055L960 457.864V283.382L880 253.581C800 223.626 640 164.024 480 127.429C320 90.8338 160 77.5547 80 70.7607L0 64.1211V271.029Z" fill="#1F72A1"/>
<path d="M0 531.002H80C160 531.002 320 531.002 480 531.002C640 531.002 800 531.002 880 531.002H960V390.737L880 383.724C800 376.711 640 362.684 480 342.446C320 322.308 160 295.858 80 282.734L0 269.509V531.002Z" fill="#16445F"/>
</g>
<defs>
<clipPath id="clip0_250_43">
<rect width="960" height="530" fill="white"/>
</clipPath>
</defs>
</svg>
