<svg width="960" height="95" viewBox="0 0 960 95" fill="none" xmlns="http://www.w3.org/2000/svg">
<path d="M0.00876578 95C-0.269339 59.887 5.83256 43.7142 52.5083 34.96C83.008 29.4989 98.0079 22.04 98.0079 22.04C123.008 12.16 114.308 14.4422 137.207 6.57824C160.007 -1.18983 183.007 -3.49148 205.807 7.53726C228.707 18.566 251.306 42.9252 274.206 47.5285C297.006 52.1318 320.006 37.171 342.806 36.7874C365.705 36.4997 388.305 50.885 411.205 46.2817C434.005 41.5825 457.005 17.9906 480.004 16.1685C503.004 14.4422 526.004 34.5817 548.804 44.1719C571.704 53.7621 594.303 52.8031 617.203 53.5703C640.003 54.4334 663.003 56.9269 685.802 52.3236C708.702 47.7203 731.302 35.8284 754.202 31.4169C777.002 26.9095 800.001 29.7866 822.801 24.9915C845.701 20.1964 868.301 7.72909 891.201 12.2365C914 16.648 937 38.13 948.5 48.7752L960 59.5162V95H948.5C937 95 914 95 891.201 95C868.301 95 845.701 95 822.801 95C800.001 95 777.002 95 754.202 95C731.302 95 708.702 95 685.802 95C663.003 95 640.003 95 617.203 95C594.303 95 571.704 95 548.804 95C526.004 95 503.004 95 480.004 95C457.005 95 434.005 95 411.205 95C388.305 95 365.705 95 342.806 95C320.006 95 297.006 95 274.206 95C251.306 95 228.707 95 205.807 95C183.007 95 160.007 95 137.207 95C114.308 95 91.7079 95 68.8081 95C46.0083 95 23.0086 95 11.5087 95H0.00876578Z" fill="#F9B915"/>
</svg>
