<svg width="961" height="530" viewBox="0 0 961 530" fill="none" xmlns="http://www.w3.org/2000/svg">
<g clip-path="url(#clip0_252_11)">
<path d="M0 239.714L32.0333 231.824C64.0667 223.834 128.133 208.055 192.2 186.815C256.267 165.574 320.333 138.872 384.4 121.172C448.467 103.471 512.533 94.7729 576.6 88.5019C640.667 82.2309 704.733 78.5897 768.8 97.0992C832.867 115.609 896.933 156.471 928.967 176.802L961 197.233V0H928.967C896.933 0 832.867 0 768.8 0C704.733 0 640.667 0 576.6 0C512.533 0 448.467 0 384.4 0C320.333 0 256.267 0 192.2 0C128.133 0 64.0667 0 32.0333 0H0V239.714Z" fill="#B72929"/>
<path d="M0 339.847L32.0333 330.239C64.0667 320.63 128.133 301.412 192.2 282.903C256.267 264.292 320.333 246.49 384.4 224.34C448.467 202.29 512.533 175.992 576.6 168.103C640.667 160.113 704.733 170.632 768.8 193.49C832.867 216.45 896.933 251.851 928.967 269.551L961 287.252V195.21L928.967 174.779C896.933 154.448 832.867 113.586 768.8 95.0763C704.733 76.5668 640.667 80.208 576.6 86.479C512.533 92.75 448.467 101.448 384.4 119.149C320.333 136.849 256.267 163.551 192.2 184.792C128.133 206.032 64.0667 221.811 32.0333 229.801L0 237.691V339.847Z" fill="#911A1E"/>
<path d="M0 446.05L32.0333 444.33C64.0667 442.712 128.133 439.273 192.2 438.464C256.267 437.655 320.333 439.273 384.4 426.832C448.467 414.391 512.533 387.689 576.6 377.979C640.667 368.168 704.733 375.248 768.8 378.788C832.867 382.328 896.933 382.328 928.967 382.328H961V285.229L928.967 267.529C896.933 249.828 832.867 214.427 768.8 191.468C704.733 168.609 640.667 158.09 576.6 166.08C512.533 173.969 448.467 200.267 384.4 222.317C320.333 244.468 256.267 262.269 192.2 280.88C128.133 299.389 64.0667 318.607 32.0333 328.216L0 337.824V446.05Z" fill="#6D0B12"/>
<path d="M0 530H32.0333C64.0667 530 128.133 530 192.2 530C256.267 530 320.333 530 384.4 530C448.467 530 512.533 530 576.6 530C640.667 530 704.733 530 768.8 530C832.867 530 896.933 530 928.967 530H961V380.277H928.967C896.933 380.277 832.867 380.277 768.8 376.76C704.733 373.243 640.667 366.209 576.6 375.956C512.533 385.603 448.467 412.131 384.4 424.491C320.333 436.85 256.267 435.243 192.2 436.046C128.133 436.85 64.0667 440.267 32.0333 441.875L0 443.583V530Z" fill="#4B0000"/>
</g>
<defs>
<clipPath id="clip0_252_11">
<rect width="961" height="530" fill="white"/>
</clipPath>
</defs>
</svg>
