<svg width="958" height="117" viewBox="0 0 958 117" fill="none" xmlns="http://www.w3.org/2000/svg">
<path d="M0 30.2923L11.476 34.1871C22.9521 38.0818 45.9042 45.8712 68.6567 52.1894C91.509 58.594 114.062 63.4408 136.914 69.2396C159.667 75.0384 182.619 81.6162 205.371 75.4712C228.224 69.2396 250.776 50.1987 273.629 35.7449C296.381 21.3777 319.333 11.5111 342.086 25.5321C364.938 39.5531 387.491 77.2887 410.343 98.0606C433.096 118.832 456.048 122.641 479 108.879C501.952 95.2045 524.904 64.0466 547.657 64.3063C570.509 64.6525 593.062 96.3296 615.914 104.985C638.667 113.64 661.619 99.2723 684.371 93.2138C707.224 87.1553 729.776 89.4056 752.629 89.146C775.381 88.8863 798.333 85.9437 821.086 75.2981C843.938 64.6525 854.217 51.5 874.674 39C886.15 31.9878 902.616 17.5 933.551 36L958 52.5V0H946.524C935.048 0 912.096 0 889.343 0C866.491 0 843.938 0 821.086 0C798.333 0 775.381 0 752.629 0C729.776 0 707.224 0 684.371 0C661.619 0 638.667 0 615.914 0C593.062 0 570.509 0 547.657 0C524.904 0 501.952 0 479 0C456.048 0 433.096 0 410.343 0C387.491 0 364.938 0 342.086 0C319.333 0 296.381 0 273.629 0C250.776 0 228.224 0 205.371 0C182.619 0 159.667 0 136.914 0C114.062 0 91.509 0 68.6567 0C45.9042 0 22.9521 0 11.476 0H0V30.2923Z" fill="#1579C7"/>
</svg>
