<svg width="960" height="485" viewBox="0 0 960 485" fill="none" xmlns="http://www.w3.org/2000/svg">
<path d="M961 431.668L949.488 404.614C937.976 377.659 914.952 323.552 892.128 331.509C869.204 339.466 846.581 409.487 823.657 450.068C800.833 490.649 777.809 501.988 754.986 445.095C732.062 388.202 709.438 263.277 686.514 239.008C663.691 214.839 640.667 291.425 617.843 292.619C594.919 293.713 572.295 219.514 549.372 243.982C526.548 268.549 503.524 391.883 480.5 401.133C457.476 410.482 434.452 305.648 411.628 255.42C388.704 205.191 366.081 209.568 343.157 205.589C320.333 201.611 297.309 189.277 274.486 213.844C251.562 238.412 228.938 299.681 206.014 322.955C183.191 346.13 160.167 331.21 137.343 355.579C114.419 379.947 91.7955 443.603 68.8717 420.229C46.0479 396.856 23.024 286.452 11.512 231.25L-1.18081e-05 176.049L-2.72729e-05 -0.000113229L11.512 -0.000114231C23.0239 -0.000115232 46.0479 -0.000117235 68.8716 -0.000119221C91.7955 -0.000121216 114.419 -0.000123184 137.343 -0.000125178C160.167 -0.000127164 183.191 -0.000129167 206.014 -0.000131153C228.938 -0.000133147 251.562 -0.000135116 274.486 -0.00013711C297.309 -0.000139096 320.333 -0.000141099 343.157 -0.000143085C366.081 -0.000145079 388.704 -0.000147048 411.628 -0.000149042C434.452 -0.000151028 457.476 -0.000153031 480.5 -0.000155034C503.524 -0.000157037 526.548 -0.000159041 549.372 -0.000161026C572.295 -0.000163021 594.919 -0.000164989 617.843 -0.000166984C640.667 -0.000168969 663.691 -0.000170972 686.514 -0.000172958C709.438 -0.000174953 732.062 -0.000176921 754.986 -0.000178915C777.809 -0.000180901 800.833 -0.000182904 823.657 -0.00018489C846.581 -0.000186885 869.204 -0.000188853 892.128 -0.000190847C914.952 -0.000192833 937.976 -0.000194836 949.488 -0.000195838L961 -0.000196839L961 431.668Z" fill="#F9B915"/>
</svg>
