<svg width="959" height="522" viewBox="0 0 959 522" fill="none" xmlns="http://www.w3.org/2000/svg">
<path d="M958.999 0.999695H0V522H958.999V0.999695Z" fill="#1579C7"/>
<path d="M0 343.737L22.7762 332.707C45.6524 321.774 91.2048 299.713 136.857 308.479C182.51 317.145 228.062 356.541 273.714 375.746C319.367 394.951 364.919 393.966 410.771 371.511C456.524 348.957 502.476 305.031 548.228 309.463C594.08 313.895 639.633 366.685 685.285 391.208C730.937 415.633 797.468 460.774 843.12 430.538C888.773 400.401 917.543 344.02 938.021 311.085L958.999 278.149V0.999695H936.223C913.347 0.999695 867.795 0.999695 822.142 0.999695C776.49 0.999695 730.937 0.999695 685.285 0.999695C639.633 0.999695 594.08 0.999695 548.228 0.999695C502.476 0.999695 456.524 0.999695 410.771 0.999695C364.919 0.999695 319.367 0.999695 273.714 0.999695C228.062 0.999695 182.51 0.999695 136.857 0.999695C91.2048 0.999695 45.6524 0.999695 22.7762 0.999695H0V343.737Z" fill="#0046AE"/>
<path d="M0 286.927L22.7762 265.951C45.6524 245.075 91.2049 203.124 136.857 194.121C182.51 185.018 228.062 208.764 273.715 228.354C319.367 248.043 364.919 263.478 410.772 250.022C456.524 236.467 502.476 193.923 548.228 198.573C594.081 203.124 639.633 254.969 685.285 274.064C730.938 293.16 776.49 279.704 822.143 273.273C867.795 266.842 913.348 267.435 936.224 267.831L959 268.128V0H936.224C913.348 0 867.795 0 822.143 0C776.49 0 730.938 0 685.285 0C639.633 0 594.081 0 548.228 0C502.476 0 456.524 0 410.772 0C364.919 0 319.367 0 273.715 0C228.062 0 182.51 0 136.857 0C91.2049 0 45.6524 0 22.7762 0H0V286.927Z" fill="#003076"/>
<path d="M958.999 67.9566L936.223 71.6006C913.347 75.1462 867.795 82.4343 822.142 90.9042C776.49 99.4727 730.937 109.321 685.285 116.413C639.633 123.405 594.08 127.739 548.228 138.671C502.476 149.701 456.524 167.429 410.771 156.399C364.919 145.466 319.367 105.677 273.714 96.0256C228.062 86.3738 182.51 106.662 136.857 124.095C91.2049 141.527 45.6524 155.906 22.7763 163.194L6.48499e-05 170.384V0H22.7763C45.6524 0 91.2049 0 136.857 0C182.51 0 228.062 0 273.714 0C319.367 0 364.919 0 410.771 0C456.524 0 502.476 0 548.228 0C594.08 0 639.633 0 685.285 0C730.937 0 776.49 0 822.142 0C867.795 0 913.347 0 936.223 0H958.999V67.9566Z" fill="#001A42"/>
</svg>
