<svg width="960" height="110" viewBox="0 0 960 110" fill="none" xmlns="http://www.w3.org/2000/svg">
<path d="M-1 8.66594L31.0333 12.7594C63.0667 16.9053 127.133 25.0922 191.2 28.9757C255.267 32.8067 319.333 32.2819 383.4 39.2618C447.467 46.2941 511.533 60.7785 575.6 56.3177C639.667 51.857 703.733 28.4509 767.8 16.0131C831.867 3.57538 895.933 2.2109 927.967 1.47618L960 0.793945V111.002H927.967C895.933 111.002 831.867 111.002 767.8 111.002C703.733 111.002 639.667 111.002 575.6 111.002C511.533 111.002 447.467 111.002 383.4 111.002C319.333 111.002 255.267 111.002 191.2 111.002C127.133 111.002 63.0667 111.002 31.0333 111.002H-1V8.66594Z" fill="#29A3E8"/>
</svg>
