<svg width="960" height="80" viewBox="0 0 960 80" fill="none" xmlns="http://www.w3.org/2000/svg">
<path d="M0 18.2169L11.5 23.1166C23 28.0792 46 37.8786 68.8 39.7631C91.7 41.6476 114.3 35.6172 137.2 30.2778C160 24.9383 183 20.2899 205.8 27.451C228.7 34.5493 251.3 53.3944 274.2 54.4623C297 55.4674 320 38.758 342.8 28.4561C365.7 18.2169 388.3 14.4479 411.2 20.1014C434 25.7549 457 40.831 480 43.9719C503 47.1127 526 38.3183 548.8 40.0772C571.7 41.8989 594.3 54.211 617.2 59.8645C640 65.5181 663 64.513 685.8 60.6183C708.7 56.7237 731.3 50.0651 754.2 51.6983C777 53.3944 800 63.4451 822.8 57.0378C845.7 50.6933 868.3 27.8279 891.2 28.7702C914 29.7124 937 54.4623 948.5 66.7744L960 79.1493V0H948.5C937 0 914 0 891.2 0C868.3 0 845.7 0 822.8 0C800 0 777 0 754.2 0C731.3 0 708.7 0 685.8 0C663 0 640 0 617.2 0C594.3 0 571.7 0 548.8 0C526 0 503 0 480 0C457 0 434 0 411.2 0C388.3 0 365.7 0 342.8 0C320 0 297 0 274.2 0C251.3 0 228.7 0 205.8 0C183 0 160 0 137.2 0C114.3 0 91.7 0 68.8 0C46 0 23 0 11.5 0H0V18.2169Z" fill="#AA6B0C"/>
</svg>
