<svg width="958" height="530" viewBox="0 0 958 530" fill="none" xmlns="http://www.w3.org/2000/svg">
<g clip-path="url(#clip0_250_28)">
<g clip-path="url(#clip1_250_28)">
<path d="M960 -1H0V529H960V-1Z" fill="#961CC0"/>
<path d="M960 -1L428 0L429 529H960V-1Z" fill="#4E1258"/>
<path d="M427.5 -1C459.6 81.626 537.305 82.8581 615.805 118.006C634.805 125.875 724.616 149.099 783.953 174.68C843.159 200.393 888.572 264.609 914.727 331.199C940.882 397.789 947.778 466.752 954.805 535.584L428 536.084C428 326.34 427.5 208.744 427.5 -1Z" fill="#961CC0"/>
<path d="M-0.991234 530C-1.26934 494.887 4.83256 478.714 51.5083 469.96C82.008 464.499 97.0079 457.04 97.0079 457.04C122.008 447.16 113.308 449.442 136.207 441.578C159.007 433.81 182.007 431.509 204.807 442.537C227.707 453.566 250.306 477.925 273.206 482.528C296.006 487.132 319.006 472.171 341.806 471.787C364.705 471.5 387.305 485.885 410.205 481.282C433.005 476.583 456.005 452.991 479.004 451.168C502.004 449.442 525.004 469.582 547.804 479.172C570.704 488.762 593.303 487.803 616.203 488.57C639.003 489.433 662.003 491.927 684.802 487.324C707.702 482.72 730.302 470.828 753.202 466.417C776.002 461.91 799.001 464.787 821.801 459.991C844.701 455.196 867.301 442.729 890.201 447.236C913 451.648 936 473.13 947.5 483.775L959 494.516V530H947.5C936 530 913 530 890.201 530C867.301 530 844.701 530 821.801 530C799.001 530 776.002 530 753.202 530C730.302 530 707.702 530 684.802 530C662.003 530 639.003 530 616.203 530C593.303 530 570.704 530 547.804 530C525.004 530 502.004 530 479.004 530C456.005 530 433.005 530 410.205 530C387.305 530 364.705 530 341.806 530C319.006 530 296.006 530 273.206 530C250.306 530 227.707 530 204.807 530C182.007 530 159.007 530 136.207 530C113.308 530 90.7079 530 67.8081 530C45.0083 530 22.0086 530 10.5087 530H-0.991234Z" fill="#F9B915"/>
</g>
</g>
<defs>
<clipPath id="clip0_250_28">
<rect width="959" height="530" fill="white"/>
</clipPath>
<clipPath id="clip1_250_28">
<rect width="960" height="530" fill="white" transform="translate(0 -1)"/>
</clipPath>
</defs>
</svg>
