<svg width="960" height="128" viewBox="0 0 960 128" fill="none" xmlns="http://www.w3.org/2000/svg">
<path d="M0 3.25951L32 19.2429C64 35.2262 128 67.1929 192 70.3269C256 73.4609 320 47.7622 384 34.4114C448 20.9979 512 19.995 576 34.4741C640 49.0158 704 79.1021 768 76.0935C832 73.0222 896 36.9186 928 18.8041L960 0.752319V127.992H928C896 127.992 832 127.992 768 127.992C704 127.992 640 127.992 576 127.992C512 127.992 448 127.992 384 127.992C320 127.992 256 127.992 192 127.992C128 127.992 64 127.992 32 127.992H0V3.25951Z" fill="#B72929"/>
</svg>
