<svg width="960" height="530" viewBox="0 0 960 530" fill="none" xmlns="http://www.w3.org/2000/svg">
<g clip-path="url(#clip0_248_7)">
<path d="M960 0H0V530H960V0Z" fill="#4E1258"/>
<path d="M960 477C913.601 439.547 867.202 402.093 817.823 379.716C768.551 357.338 716.299 350.036 670.325 320.591C624.246 291.147 584.338 239.678 561.777 182.556C539.323 125.433 534.108 62.6578 529 0H960V477Z" fill="#961CC0"/>
<path d="M0 53C41.0667 104.704 82.1333 156.291 132.693 176.313C183.253 196.336 243.307 184.793 291.947 207.642C340.48 230.609 377.707 287.967 399.147 347.444C420.587 406.922 426.24 468.52 432 530H0V53Z" fill="#961CC0"/>
</g>
<defs>
<clipPath id="clip0_248_7">
<rect width="960" height="530" fill="white"/>
</clipPath>
</defs>
</svg>
