<svg width="959" height="530" viewBox="0 0 959 530" fill="none" xmlns="http://www.w3.org/2000/svg">
<g clip-path="url(#clip0_250_28)">
<g clip-path="url(#clip1_250_28)">
<path d="M961 -1H1V529H961V-1Z" fill="#961CC0"/>
<path d="M961 -1H430V529H961V-1Z" fill="#4E1258"/>
<path d="M430 -1C462.1 81.626 539.305 82.8581 617.805 118.006C636.805 125.875 726.616 149.099 785.953 174.68C845.159 200.393 890.572 264.609 916.727 331.199C942.882 397.789 949.778 466.752 956.805 535.584L430 536.084C430 326.34 430 208.744 430 -1Z" fill="#961CC0"/>
</g>
<path d="M0.00876578 530C-0.269339 494.887 5.83256 478.714 52.5083 469.96C83.008 464.499 98.0079 457.04 98.0079 457.04C123.008 447.16 114.308 449.442 137.207 441.578C160.007 433.81 183.007 431.509 205.807 442.537C228.707 453.566 251.306 477.925 274.206 482.528C297.006 487.132 320.006 472.171 342.806 471.787C365.705 471.5 388.305 485.885 411.205 481.282C434.005 476.583 457.005 452.991 480.004 451.168C503.004 449.442 526.004 469.582 548.804 479.172C571.704 488.762 594.303 487.803 617.203 488.57C640.003 489.433 663.003 491.927 685.802 487.324C708.702 482.72 731.302 470.828 754.202 466.417C777.002 461.91 800.001 464.787 822.801 459.991C845.701 455.196 868.301 442.729 891.201 447.236C914 451.648 937 473.13 948.5 483.775L960 494.516V530H948.5C937 530 914 530 891.201 530C868.301 530 845.701 530 822.801 530C800.001 530 777.002 530 754.202 530C731.302 530 708.702 530 685.802 530C663.003 530 640.003 530 617.203 530C594.303 530 571.704 530 548.804 530C526.004 530 503.004 530 480.004 530C457.005 530 434.005 530 411.205 530C388.305 530 365.705 530 342.806 530C320.006 530 297.006 530 274.206 530C251.306 530 228.707 530 205.807 530C183.007 530 160.007 530 137.207 530C114.308 530 91.7079 530 68.8081 530C46.0083 530 23.0086 530 11.5087 530H0.00876578Z" fill="#F9B915"/>
</g>
<defs>
<clipPath id="clip0_250_28">
<rect width="960" height="530" fill="white"/>
</clipPath>
<clipPath id="clip1_250_28">
<rect width="960" height="530" fill="white" transform="translate(1 -1)"/>
</clipPath>
</defs>
</svg>
