<svg width="960" height="530" viewBox="0 0 960 530" fill="none" xmlns="http://www.w3.org/2000/svg">
<g clip-path="url(#clip0_250_25)">
<path d="M-6.10352e-05 530L960.999 530L960.999 -6.10352e-05L-0.000107593 2.25751e-05L-6.10352e-05 530Z" fill="#AA6B0C"/>
<path d="M960.999 434.188L949.487 406.976C937.975 379.865 914.951 325.441 892.127 333.444C869.203 341.448 846.58 411.878 823.656 452.696C800.832 493.514 777.808 504.919 754.985 447.694C732.061 390.469 709.437 264.815 686.514 240.404C663.69 216.094 640.666 293.127 617.842 294.327C594.918 295.428 572.295 220.796 549.371 245.406C526.547 270.117 503.523 394.171 480.499 403.475C457.475 412.879 434.452 307.433 411.628 256.911C388.704 206.389 366.08 210.791 343.157 206.79C320.333 202.788 297.309 190.382 274.485 215.093C251.561 239.804 228.938 301.431 206.014 324.841C183.19 348.151 160.166 333.144 137.343 357.655C114.419 382.166 91.7954 446.193 68.8715 422.683C46.0478 399.173 23.0239 288.125 11.5119 232.601L-8.06307e-05 177.077L-9.61858e-05 -3.01616e-05L11.5119 -3.11632e-05C23.0238 -3.21647e-05 46.0478 -3.41679e-05 68.8715 -3.61536e-05C91.7953 -3.81481e-05 114.419 -4.01164e-05 137.343 -4.21109e-05C160.166 -4.40966e-05 183.19 -4.60998e-05 206.014 -4.80855e-05C228.938 -5.008e-05 251.561 -5.20483e-05 274.485 -5.40428e-05C297.309 -5.60285e-05 320.333 -5.80317e-05 343.157 -6.00174e-05C366.08 -6.20119e-05 388.704 -6.39802e-05 411.628 -6.59746e-05C434.452 -6.79604e-05 457.475 -6.99635e-05 480.499 -7.19667e-05C503.523 -7.39699e-05 526.547 -7.5973e-05 549.371 -7.79588e-05C572.295 -7.99532e-05 594.918 -8.19216e-05 617.842 -8.3916e-05C640.666 -8.59017e-05 663.69 -8.79049e-05 686.514 -8.98907e-05C709.437 -9.18851e-05 732.061 -9.38534e-05 754.985 -9.58479e-05C777.808 -9.78336e-05 800.832 -9.98368e-05 823.656 -0.000101823C846.58 -0.000103817 869.203 -0.000105785 892.127 -0.00010778C914.951 -0.000109766 937.975 -0.000111769 949.487 -0.00011277L960.999 -0.000113772L960.999 434.188Z" fill="#F9B915"/>
</g>
<defs>
<clipPath id="clip0_250_25">
<rect width="962" height="530" fill="white" transform="translate(962 530) rotate(180)"/>
</clipPath>
</defs>
</svg>
