<svg width="960" height="99" viewBox="0 0 960 99" fill="none" xmlns="http://www.w3.org/2000/svg">
<path d="M0 0.177968L26.7 0.291409C53.3 0.348126 106.7 0.574981 160 4.31831C213.3 8.11835 266.7 15.4916 320 19.7454C373.3 23.9991 426.7 25.1335 480 23.0349C533.3 20.9931 586.7 15.6617 640 10.5005C693.3 5.28251 746.7 0.177975 800 0.00782368C853.3 -0.219045 906.7 4.54517 933.3 6.87057L960 9.2527V100H933.3C906.7 100 853.3 100 800 100C746.7 100 693.3 100 640 100C586.7 100 533.3 100 480 100C426.7 100 373.3 100 320 100C266.7 100 213.3 100 160 100C106.7 100 53.3 100 26.7 100H0V0.177968Z" fill="#001A42"/>
</svg>
