<svg width="1920" height="629" viewBox="0 0 1920 629" fill="none" xmlns="http://www.w3.org/2000/svg">
<g clip-path="url(#clip0_252_5)">
<path d="M0 159.319L35.5 158.285C71 157.25 142 155.181 213.2 152.077C284.3 148.974 355.7 144.836 426.8 138.628C498 132.421 569 124.145 640 109.247C711 94.5569 782 73.0385 853.2 72.0039C924.3 70.9694 995.7 90.4187 1066.8 105.109C1138 120.007 1209 130.352 1280 124.765C1351 119.386 1422 97.8674 1493.2 85.2461C1564.3 72.4178 1635.7 68.2796 1706.8 67.2451C1778 66.2105 1849 68.2796 1884.5 69.3141L1920 70.3487V0H1884.5C1849 0 1778 0 1706.8 0C1635.7 0 1564.3 0 1493.2 0C1422 0 1351 0 1280 0C1209 0 1138 0 1066.8 0C995.7 0 924.3 0 853.2 0C782 0 711 0 640 0C569 0 498 0 426.8 0C355.7 0 284.3 0 213.2 0C142 0 71 0 35.5 0H0V159.319Z" fill="#5D2FA2"/>
<path d="M0 424.161L35.5 406.16C71 388.366 142 352.364 213.2 320.707C284.3 289.05 355.7 261.325 426.8 268.566C498 275.808 569 318.017 640 318.017C711 318.017 782 275.808 853.2 251.807C924.3 227.599 995.7 221.391 1066.8 219.322C1138 217.253 1209 219.322 1280 224.909C1351 230.288 1422 239.392 1493.2 250.979C1564.3 262.773 1635.7 277.257 1706.8 268.566C1778 260.083 1849 228.219 1884.5 212.494L1920 196.562V66.2105L1884.5 65.176C1849 64.1414 1778 62.0724 1706.8 63.1069C1635.7 64.1414 1564.3 68.2796 1493.2 81.1079C1422 93.7293 1351 115.248 1280 120.627C1209 126.214 1138 115.868 1066.8 100.971C995.7 86.2806 924.3 66.8312 853.2 67.8658C782 68.9003 711 90.4187 640 105.109C569 120.007 498 128.283 426.8 134.49C355.7 140.697 284.3 144.836 213.2 147.939C142 151.043 71 153.112 35.5 154.146L0 155.181V424.161Z" fill="#4E2485"/>
<path d="M0 473.819L35.5 463.474C71 453.128 142 432.437 213.2 413.402C284.3 394.573 355.7 377.193 426.8 387.538C498 397.884 569 435.955 640 433.886C711 431.817 782 389.608 853.2 365.606C924.3 341.398 995.7 335.191 1066.8 332.087C1138 328.984 1209 328.984 1280 325.88C1351 322.776 1422 316.569 1493.2 324.845C1564.3 333.122 1635.7 355.882 1706.8 350.709C1778 345.536 1849 312.431 1884.5 295.878L1920 279.326V192.424L1884.5 208.356C1849 224.081 1778 255.945 1706.8 264.428C1635.7 273.118 1564.3 258.635 1493.2 246.841C1422 235.254 1351 226.15 1280 220.771C1209 215.184 1138 213.115 1066.8 215.184C995.7 217.253 924.3 223.461 853.2 247.669C782 271.67 711 313.879 640 313.879C569 313.879 498 271.67 426.8 264.428C355.7 257.187 284.3 284.912 213.2 316.569C142 348.226 71 384.228 35.5 402.022L0 420.023V473.819Z" fill="#3E1A69"/>
<path d="M0 581.411L35.5 577.273C71 573.135 142 564.859 213.2 557.203C284.3 549.754 355.7 542.719 426.8 544.788C498 546.858 569 558.031 640 558.031C711 558.031 782 546.858 853.2 545.823C924.3 544.788 995.7 553.892 1066.8 551.823C1138 549.754 1209 536.512 1280 541.685C1351 546.858 1422 570.445 1493.2 574.583C1564.3 578.721 1635.7 563.41 1706.8 555.962C1778 548.306 1849 548.306 1884.5 548.306H1920V275.188L1884.5 291.74C1849 308.293 1778 341.398 1706.8 346.571C1635.7 351.743 1564.3 328.984 1493.2 320.707C1422 312.431 1351 318.638 1280 321.742C1209 324.845 1138 324.845 1066.8 327.949C995.7 331.053 924.3 337.26 853.2 361.468C782 385.469 711 427.679 640 429.748C569 431.817 498 393.746 426.8 383.4C355.7 373.055 284.3 390.435 213.2 409.264C142 428.299 71 448.99 35.5 459.336L0 469.681V581.411Z" fill="#2E104F"/>
<path d="M0 629.357H35.5C71 629.357 142 629.357 213.2 629.357C284.3 629.357 355.7 629.357 426.8 629.357C498 629.357 569 629.357 640 629.357C711 629.357 782 629.357 853.2 629.357C924.3 629.357 995.7 629.357 1066.8 629.357C1138 629.357 1209 629.357 1280 629.357C1351 629.357 1422 629.357 1493.2 629.357C1564.3 629.357 1635.7 629.357 1706.8 629.357C1778 629.357 1849 629.357 1884.5 629.357H1920V542.192H1884.5C1849 542.192 1778 542.192 1706.8 549.87C1635.7 557.342 1564.3 572.699 1493.2 568.549C1422 564.398 1351 540.739 1280 535.55C1209 530.362 1138 543.644 1066.8 545.72C995.7 547.795 924.3 538.663 853.2 539.701C782 540.739 711 551.946 640 551.946C569 551.946 498 540.739 426.8 538.663C355.7 536.588 284.3 543.644 213.2 551.116C142 558.794 71 567.096 35.5 571.247L0 575.397V629.357Z" fill="#1F0736"/>
</g>
<defs>
<clipPath id="clip0_252_5">
<rect width="1920" height="629" fill="white"/>
</clipPath>
</defs>
</svg>
