<svg width="430" height="430" viewBox="0 0 430 430" fill="none" xmlns="http://www.w3.org/2000/svg">
<g clip-path="url(#clip0_1_2)">
<rect width="430" height="430" rx="215" fill="#0C0C0C"/>
<path d="M249.929 320.776C248.458 319.065 247.95 316.324 247.95 315.334C247.95 314.806 253.039 310.987 256.855 306.925C260.178 303.388 262.297 299.505 262.297 299.505C262.297 299.505 266.75 297.527 273.676 299.505C280.603 301.484 289.135 305.727 311.277 313.356C311.277 313.356 285.55 330.174 273.676 331.164C261.802 332.153 251.399 322.487 249.929 320.776Z" fill="#6F13E3" stroke="#FFA800" stroke-width="2.4"/>
<path d="M242.91 281.523C240.055 286.951 234.097 308.409 237.065 310.882C240.034 313.356 239.539 313.356 245.476 313.356C251.413 313.356 261.308 302.968 264.276 295.548C267.245 288.128 278.25 265.598 275.16 245.136C257.569 260.788 245.765 276.094 242.91 281.523Z" fill="#6F13E3" stroke="#FFA800" stroke-width="2.4"/>
<path d="M291.982 298.021C283.361 295.142 259.025 297.933 265.76 295.548C272.496 293.163 274.549 289.872 278.624 282.192C278.624 282.192 279.613 264.879 280.603 255.48C281.592 246.081 295.445 227.779 295.445 227.779C295.445 227.779 305.982 245.671 304.845 253.501C303.708 261.332 295.445 279.719 295.445 279.719C295.445 279.719 321.729 257.407 351.846 251.028C338.85 307.59 300.603 300.9 291.982 298.021Z" fill="#6F13E3" stroke="#FFA800" stroke-width="2.4" stroke-miterlimit="16"/>
<path d="M326.119 249.544L297.424 276.751C298.149 276.026 304.835 259.214 305.548 257.953C307.753 254.053 309.607 247.492 309.298 237.672C300.82 225.123 296.665 214.67 291.487 183.259C311.953 193.358 321.352 204.305 322.656 208.487C323.959 212.668 318.423 239.761 318.423 239.761C318.423 239.761 328.098 216.896 333.54 207.003C338.982 197.109 357.783 180.786 357.783 180.786C357.783 180.786 365.922 248.487 326.119 249.544Z" fill="#6F13E3" stroke="#FFA800" stroke-width="2.4" stroke-miterlimit="16"/>
<path d="M337.498 195.625C336.646 201.933 323.202 225.56 322.161 227.5V207.497C323.357 192.569 303.361 184.248 294.95 177.323C286.54 170.398 285.421 165.019 275.16 140.718C294.773 139.137 305.203 145.262 322.656 170.398C313.253 139.544 313.187 125.101 322.656 104.607C324.14 109.554 344.919 129.835 347.888 143.686C350.856 157.536 350.331 167.386 345.414 181.28L337.498 195.625Z" fill="#6F13E3" stroke="#FFA800" stroke-width="2.4" stroke-miterlimit="16"/>
<path d="M308.803 129.34C309.602 133.15 312.491 144.615 317.214 148.138L319.687 164.956L303.856 148.632L294.95 138.244C283.954 139.581 276.77 141.15 263.287 132.803L262.989 132.589C252.515 125.056 243.786 118.777 238.055 108.07C255.388 106.147 268.062 109.215 290.498 119.942C281.409 110.434 283.076 113.016 271.203 100.65C259.329 88.2831 258.834 74.4324 258.834 74.4324C258.834 74.4324 293.303 80.0568 299.5 92C303.102 106.521 308.77 114.876 308.803 129.34Z" fill="#6F13E3" stroke="#FFA800" stroke-width="2.4" stroke-miterlimit="16"/>
<path d="M180.539 320.343C182.01 318.633 182.518 315.891 182.518 314.902C182.518 314.373 177.429 310.555 173.613 306.493C170.289 302.956 168.17 299.073 168.17 299.073C168.17 299.073 163.718 297.094 156.791 299.073C149.865 301.051 141.332 305.295 119.191 312.923C119.191 312.923 144.918 329.742 156.791 330.731C168.665 331.721 179.068 322.054 180.539 320.343Z" fill="#6F13E3" stroke="#FFA800" stroke-width="2.4"/>
<path d="M187.558 281.09C190.413 286.519 196.371 307.977 193.402 310.45C190.434 312.923 190.929 312.923 184.992 312.923C179.055 312.923 169.16 302.535 166.192 295.115C163.223 287.695 152.218 265.165 155.307 244.704C172.899 260.356 184.703 275.661 187.558 281.09Z" fill="#6F13E3" stroke="#FFA800" stroke-width="2.4"/>
<path d="M138.486 297.589C147.107 294.709 171.442 297.5 164.707 295.115C157.972 292.73 155.919 289.44 151.844 281.759C151.844 281.759 150.855 264.446 149.865 255.048C148.876 245.649 135.023 227.346 135.023 227.346C135.023 227.346 124.486 245.238 125.623 253.069C126.76 260.899 135.023 279.286 135.023 279.286C135.023 279.286 108.739 256.975 78.6226 250.596C91.6185 307.158 129.865 300.468 138.486 297.589Z" fill="#6F13E3" stroke="#FFA800" stroke-width="2.4" stroke-miterlimit="16"/>
<path d="M104.349 249.112L133.044 276.318C132.319 275.593 125.633 258.781 124.92 257.521C122.715 253.621 120.861 247.06 121.17 237.24C129.648 224.69 133.803 214.237 138.981 182.827C118.515 192.926 109.116 203.873 107.812 208.054C106.509 212.236 112.045 239.329 112.045 239.329C112.045 239.329 102.37 216.464 96.928 206.57C91.4859 196.677 72.6858 180.353 72.6858 180.353C72.6858 180.353 64.5464 248.055 104.349 249.112Z" fill="#6F13E3" stroke="#FFA800" stroke-width="2.4" stroke-miterlimit="16"/>
<path d="M92.9701 195.193C93.8221 201.501 107.266 225.128 108.307 227.068V207.065C107.111 192.137 127.107 183.816 135.518 176.89C143.928 169.965 145.047 164.587 155.307 140.285C135.694 138.704 125.265 144.829 107.812 169.965C117.215 139.111 117.281 124.668 107.812 104.175C106.328 109.121 85.549 129.403 82.5806 143.253C79.6121 157.104 80.1372 166.953 85.0543 180.848L92.9701 195.193Z" fill="#6F13E3" stroke="#FFA800" stroke-width="2.4" stroke-miterlimit="16"/>
<path d="M121.665 128.908C120.866 132.718 117.977 144.182 113.254 147.705L110.781 164.524L126.612 148.2L135.518 137.812C146.513 139.149 153.698 140.717 167.181 132.371L167.479 132.156C177.953 124.623 186.681 118.345 192.413 107.637C175.08 105.714 162.405 108.782 139.97 119.509C149.059 110.002 147.391 112.584 159.265 100.217C171.139 87.8506 171.634 74 171.634 74C171.634 74 129.841 88.274 123.644 100.217C120.042 114.738 121.698 114.443 121.665 128.908Z" fill="#6F13E3" stroke="#FFA800" stroke-width="2.4" stroke-miterlimit="16"/>
<path d="M215.36 398L198.673 339.013L232.048 339.013L215.36 398Z" fill="#6F13E3"/>
<rect x="198.844" y="184.522" width="33.0321" height="155.695" fill="#6F13E3"/>
<path d="M180.952 176.025C180.952 163.875 190.802 154.025 202.952 154.025H227.769C239.919 154.025 249.769 163.875 249.769 176.025V181.917C249.769 182.469 249.321 182.917 248.769 182.917H181.952C181.4 182.917 180.952 182.469 180.952 181.917V176.025Z" fill="#6F13E3"/>
<path d="M202.973 139.579H227.747C227.747 139.579 225.495 144.573 225.495 148.14C225.495 151.707 227.747 152.42 227.747 152.42H202.973C202.973 152.42 205.226 151.707 205.226 148.14C205.226 144.573 202.973 139.579 202.973 139.579Z" fill="#6F13E3"/>
<path d="M202.973 125.133H227.747C227.747 125.133 225.495 130.127 225.495 133.694C225.495 137.261 227.747 137.974 227.747 137.974H202.973C202.973 137.974 205.226 137.261 205.226 133.694C205.226 130.127 202.973 125.133 202.973 125.133Z" fill="#6F13E3"/>
<path d="M202.973 110.687H227.747C227.747 110.687 225.495 115.681 225.495 119.248C225.495 122.815 227.747 123.528 227.747 123.528H202.973C202.973 123.528 205.226 122.815 205.226 119.248C205.226 115.681 202.973 110.687 202.973 110.687Z" fill="#6F13E3"/>
<path d="M201.597 96.2416H229.124C229.124 96.2416 226.621 101.235 226.621 104.802C226.621 108.369 229.124 109.082 229.124 109.082H201.597C201.597 109.082 204.099 108.369 204.099 104.802C204.099 101.235 201.597 96.2416 201.597 96.2416Z" fill="#6F13E3"/>
<ellipse cx="215" cy="83.645" rx="20" ry="20.645" fill="#6F13E3"/>
<path d="M213.5 184H216.5V326.316L215 353L213.5 326.316V184Z" fill="black"/>
<rect x="212.031" y="61" width="5.50535" height="4.81529" rx="2.40765" fill="#6F13E3"/>
</g>
<defs>
<clipPath id="clip0_1_2">
<rect width="430" height="430" fill="white"/>
</clipPath>
</defs>
</svg>
