<svg width="20" height="20" viewBox="0 0 20 20" fill="none" xmlns="http://www.w3.org/2000/svg">
<g clip-path="url(#clip0_1_4)">
<path d="M5.04044 0.29289C5.43096 0.68341 5.43096 1.31658 5.04044 1.7071L3.41421 3.33333H11.6667C16.2691 3.33333 20 7.06429 20 11.6667C20 16.2691 16.2691 20 11.6667 20C7.06429 20 3.33333 16.2691 3.33333 11.6667C3.33333 11.1144 3.78105 10.6667 4.33333 10.6667C4.88561 10.6667 5.33333 11.1144 5.33333 11.6667C5.33333 15.1645 8.16886 18 11.6667 18C15.1645 18 18 15.1645 18 11.6667C18 8.16886 15.1645 5.33333 11.6667 5.33333H3.41421L5.04044 6.95956C5.43096 7.35008 5.43096 7.98325 5.04044 8.37377C4.64992 8.76429 4.01674 8.76429 3.62622 8.37377L0.29289 5.04044C-0.09763 4.64992 -0.09763 4.01674 0.29289 3.62622L3.62622 0.29289C4.01674 -0.09763 4.64992 -0.09763 5.04044 0.29289Z" fill="#CCCCCC"/>
</g>
<defs>
<clipPath id="clip0_1_4">
<rect width="20" height="20" fill="white"/>
</clipPath>
</defs>
</svg>
