<svg width="24" height="24" viewBox="0 0 24 24" fill="none" xmlns="http://www.w3.org/2000/svg">
<g clip-path="url(#clip0_1_2)">
<path d="M12 0C9.62663 0 7.30655 0.703788 5.33316 2.02236C3.35977 3.34094 1.8217 5.21509 0.913451 7.4078C0.00519943 9.60051 -0.232441 12.0133 0.230582 14.3411C0.693605 16.6689 1.83649 18.8071 3.51472 20.4853C5.19295 22.1635 7.33115 23.3064 9.65892 23.7694C11.9867 24.2324 14.3995 23.9948 16.5922 23.0866C18.7849 22.1783 20.6591 20.6402 21.9776 18.6668C23.2962 16.6935 24 14.3734 24 12C23.9966 8.81846 22.7312 5.76821 20.4815 3.51852C18.2318 1.26883 15.1815 0.00344108 12 0ZM12 22C10.0222 22 8.08879 21.4135 6.4443 20.3147C4.79981 19.2159 3.51809 17.6541 2.76121 15.8268C2.00433 13.9996 1.8063 11.9889 2.19215 10.0491C2.578 8.10929 3.53041 6.32746 4.92894 4.92893C6.32746 3.53041 8.10929 2.578 10.0491 2.19215C11.9889 1.8063 13.9996 2.00433 15.8268 2.7612C17.6541 3.51808 19.2159 4.79981 20.3147 6.4443C21.4135 8.08879 22 10.0222 22 12C21.9971 14.6513 20.9426 17.1931 19.0679 19.0679C17.1931 20.9426 14.6513 21.9971 12 22Z" fill="#CCCCCC"/>
<path d="M16.707 7.29299C16.5195 7.10552 16.2652 7.0002 16 7.0002C15.7348 7.0002 15.4805 7.10552 15.293 7.29299L12 10.586L8.70699 7.29299C8.61474 7.19748 8.5044 7.1213 8.38239 7.06889C8.26039 7.01648 8.12917 6.98889 7.99639 6.98774C7.86361 6.98659 7.73193 7.01189 7.60904 7.06217C7.48614 7.11245 7.37449 7.1867 7.28059 7.28059C7.1867 7.37449 7.11245 7.48614 7.06217 7.60904C7.01189 7.73193 6.98659 7.86361 6.98774 7.99639C6.98889 8.12917 7.01648 8.26039 7.06889 8.38239C7.1213 8.5044 7.19748 8.61474 7.29299 8.70699L10.586 12L7.29299 15.293C7.19748 15.3852 7.1213 15.4956 7.06889 15.6176C7.01648 15.7396 6.98889 15.8708 6.98774 16.0036C6.98659 16.1364 7.01189 16.268 7.06217 16.3909C7.11245 16.5138 7.1867 16.6255 7.28059 16.7194C7.37449 16.8133 7.48614 16.8875 7.60904 16.9378C7.73193 16.9881 7.86361 17.0134 7.99639 17.0122C8.12917 17.0111 8.26039 16.9835 8.38239 16.9311C8.5044 16.8787 8.61474 16.8025 8.70699 16.707L12 13.414L15.293 16.707C15.4816 16.8891 15.7342 16.9899 15.9964 16.9877C16.2586 16.9854 16.5094 16.8802 16.6948 16.6948C16.8802 16.5094 16.9854 16.2586 16.9877 15.9964C16.9899 15.7342 16.8891 15.4816 16.707 15.293L13.414 12L16.707 8.70699C16.8945 8.51946 16.9998 8.26515 16.9998 7.99999C16.9998 7.73483 16.8945 7.48052 16.707 7.29299Z" fill="#CCCCCC"/>
</g>
<defs>
<clipPath id="clip0_1_2">
<rect width="24" height="24" fill="white"/>
</clipPath>
</defs>
</svg>
