<svg width="48" height="48" viewBox="0 0 48 48" fill="none" xmlns="http://www.w3.org/2000/svg">
<g clip-path="url(#clip0_2_5)">
<path d="M18.8 42C19.3523 42 19.8 41.5523 19.8 41V30.2941C19.8 29.7418 20.2477 29.2941 20.8 29.2941H27.2C27.7523 29.2941 28.2 29.7418 28.2 30.2941V41C28.2 41.5523 28.6477 42 29.2 42H37.7C38.2523 42 38.7 41.5523 38.7 41V26.0466C38.7 25.4991 39.1403 25.0534 39.6877 25.0467L43.5 25V25C44.0095 25.02 44.266 24.3927 43.8884 24.05L24.6721 6.60993C24.2908 6.26393 23.7092 6.26393 23.3279 6.60993L4.11075 24.0507C3.71856 24.4067 3.97037 25.0588 4.5 25.0588V25.0588H8.3C8.85229 25.0588 9.3 25.5065 9.3 26.0588V41C9.3 41.5523 9.74771 42 10.3 42H18.8Z" fill="white"/>
</g>
<defs>
<clipPath id="clip0_2_5">
<rect width="48" height="48" fill="white"/>
</clipPath>
</defs>
</svg>
