<svg width="48" height="48" viewBox="0 0 48 48" fill="none" xmlns="http://www.w3.org/2000/svg">
<path d="M7.35 40.3C6.325 40.3 5.46041 39.9479 4.75625 39.2438C4.05208 38.5396 3.7 37.675 3.7 36.65V6.9L7.35 6.9H10.65H14H17.5H20.65H24H27.35H30.65H34H37.35H40.65H44.35V36.65C44.35 37.675 43.9896 38.5396 43.2687 39.2438C42.5479 39.9479 41.6917 40.3 40.7 40.3H7.35ZM7.35 36.65H22.2V23.3H7.35V36.65ZM25.85 36.65H40.7V31.8H25.85V36.65ZM25.85 28.15H40.7V23.3H25.85V28.15ZM7.35 19.65H40.7V14.3H7.35V19.65Z" fill="white"/>
</svg>
