<svg width="48" height="48" viewBox="0 0 48 48" fill="none" xmlns="http://www.w3.org/2000/svg">
<path d="M38.7093 42L28.0475 31.3237C26.8573 32.1917 25.5832 32.8535 24.2252 33.3092C22.8671 33.7649 21.4648 33.9928 20.0183 33.9928C16.1399 33.9928 12.8339 32.6365 10.1003 29.9241C7.36677 27.2116 6 23.8955 6 19.9757C6 16.1427 7.36499 12.8552 10.095 10.1131C12.825 7.37104 16.1266 6 19.9999 6C23.8732 6 27.181 7.36709 29.9232 10.1013C32.6655 12.8354 34.0366 16.1338 34.0366 19.9964C34.0366 21.4715 33.8172 22.8818 33.3784 24.2275C32.9397 25.5731 32.2815 26.8535 31.404 28.0687L42 38.6799L38.7093 42ZM20.0028 29.2405C22.5579 29.2405 24.7349 28.3491 26.5338 26.5664C28.3327 24.7837 29.2322 22.5988 29.2322 20.0117C29.2322 17.4246 28.3379 15.2346 26.5493 13.4417C24.7607 11.6487 22.5889 10.7523 20.0337 10.7523C17.4786 10.7523 15.3016 11.6495 13.5027 13.444C11.7038 15.2385 10.8044 17.4175 10.8044 19.9811C10.8044 22.5519 11.6987 24.7378 13.4873 26.5389C15.2758 28.34 17.4477 29.2405 20.0028 29.2405Z" fill="white"/>
</svg>
