<svg width="48" height="48" viewBox="0 0 48 48" fill="none" xmlns="http://www.w3.org/2000/svg">
<path d="M10.8 41C9.73333 41 8.83333 40.6333 8.1 39.9C7.36667 39.1667 7 38.2667 7 37.2C7 36.1333 7.36667 35.2333 8.1 34.5C8.83333 33.7667 9.73333 33.4 10.8 33.4C11.8667 33.4 12.7667 33.7667 13.5 34.5C14.2333 35.2333 14.6 36.1333 14.6 37.2C14.6 38.2667 14.2333 39.1667 13.5 39.9C12.7667 40.6333 11.8667 41 10.8 41ZM24 41C22.9333 41 22.0333 40.6333 21.3 39.9C20.5667 39.1667 20.2 38.2667 20.2 37.2C20.2 36.1333 20.5667 35.2333 21.3 34.5C22.0333 33.7667 22.9333 33.4 24 33.4C25.0667 33.4 25.9667 33.7667 26.7 34.5C27.4333 35.2333 27.8 36.1333 27.8 37.2C27.8 38.2667 27.4333 39.1667 26.7 39.9C25.9667 40.6333 25.0667 41 24 41ZM37.2 41C36.1333 41 35.2333 40.6333 34.5 39.9C33.7667 39.1667 33.4 38.2667 33.4 37.2C33.4 36.1333 33.7667 35.2333 34.5 34.5C35.2333 33.7667 36.1333 33.4 37.2 33.4C38.2667 33.4 39.1667 33.7667 39.9 34.5C40.6333 35.2333 41 36.1333 41 37.2C41 38.2667 40.6333 39.1667 39.9 39.9C39.1667 40.6333 38.2667 41 37.2 41ZM10.8 27.8C9.73333 27.8 8.83333 27.4333 8.1 26.7C7.36667 25.9667 7 25.0667 7 24C7 22.9333 7.36667 22.0333 8.1 21.3C8.83333 20.5667 9.73333 20.2 10.8 20.2C11.8667 20.2 12.7667 20.5667 13.5 21.3C14.2333 22.0333 14.6 22.9333 14.6 24C14.6 25.0667 14.2333 25.9667 13.5 26.7C12.7667 27.4333 11.8667 27.8 10.8 27.8ZM24 27.8C22.9333 27.8 22.0333 27.4333 21.3 26.7C20.5667 25.9667 20.2 25.0667 20.2 24C20.2 22.9333 20.5667 22.0333 21.3 21.3C22.0333 20.5667 22.9333 20.2 24 20.2C25.0667 20.2 25.9667 20.5667 26.7 21.3C27.4333 22.0333 27.8 22.9333 27.8 24C27.8 25.0667 27.4333 25.9667 26.7 26.7C25.9667 27.4333 25.0667 27.8 24 27.8ZM37.2 27.8C36.1333 27.8 35.2333 27.4333 34.5 26.7C33.7667 25.9667 33.4 25.0667 33.4 24C33.4 22.9333 33.7667 22.0333 34.5 21.3C35.2333 20.5667 36.1333 20.2 37.2 20.2C38.2667 20.2 39.1667 20.5667 39.9 21.3C40.6333 22.0333 41 22.9333 41 24C41 25.0667 40.6333 25.9667 39.9 26.7C39.1667 27.4333 38.2667 27.8 37.2 27.8ZM10.8 14.6C9.73333 14.6 8.83333 14.2333 8.1 13.5C7.36667 12.7667 7 11.8667 7 10.8C7 9.73333 7.36667 8.83333 8.1 8.1C8.83333 7.36667 9.73333 7 10.8 7C11.8667 7 12.7667 7.36667 13.5 8.1C14.2333 8.83333 14.6 9.73333 14.6 10.8C14.6 11.8667 14.2333 12.7667 13.5 13.5C12.7667 14.2333 11.8667 14.6 10.8 14.6ZM24 14.6C22.9333 14.6 22.0333 14.2333 21.3 13.5C20.5667 12.7667 20.2 11.8667 20.2 10.8C20.2 9.73333 20.5667 8.83333 21.3 8.1C22.0333 7.36667 22.9333 7 24 7C25.0667 7 25.9667 7.36667 26.7 8.1C27.4333 8.83333 27.8 9.73333 27.8 10.8C27.8 11.8667 27.4333 12.7667 26.7 13.5C25.9667 14.2333 25.0667 14.6 24 14.6ZM37.2 14.6C36.1333 14.6 35.2333 14.2333 34.5 13.5C33.7667 12.7667 33.4 11.8667 33.4 10.8C33.4 9.73333 33.7667 8.83333 34.5 8.1C35.2333 7.36667 36.1333 7 37.2 7C38.2667 7 39.1667 7.36667 39.9 8.1C40.6333 8.83333 41 9.73333 41 10.8C41 11.8667 40.6333 12.7667 39.9 13.5C39.1667 14.2333 38.2667 14.6 37.2 14.6Z" fill="white"/>
</svg>
